<svg width="28" height="28" viewBox="0 0 28 28" fill="none" xmlns="http://www.w3.org/2000/svg">
<g id="logo">
<path id="Vector 3804 (Stroke)" fill-rule="evenodd" clip-rule="evenodd" d="M10.9375 5.25C6.82988 5.25 3.5 8.57988 3.5 12.6875V13.125C3.5 16.991 6.63401 20.125 10.5 20.125V23.625C4.70101 23.625 0 18.924 0 13.125V12.6875C0 6.64689 4.89689 1.75 10.9375 1.75H17.0625C23.1031 1.75 28 6.64689 28 12.6875V13.125C28 18.924 23.299 23.625 17.5 23.625C16.2765 23.625 15.4256 24.2763 14.7984 25.1125C14.4854 25.5299 14.2597 25.9573 14.1125 26.2845C14.0399 26.4458 14.0122 26.5116 13.9584 26.661C13.946 26.6954 13.9329 26.7332 13.9276 26.7493L13.9233 26.7625L13.9238 26.7606L13.9248 26.7575L13.9254 26.7554L13.9258 26.7542C13.9258 26.7542 13.9262 26.7529 12.25 26.25C10.5738 25.7471 10.5742 25.7457 10.5742 25.7457L10.5747 25.7442L10.5757 25.7409L10.5781 25.733L10.5845 25.7124C10.5895 25.6965 10.5959 25.6765 10.6039 25.6525C10.6197 25.6045 10.6415 25.5406 10.6698 25.463C10.7262 25.3083 10.8087 25.0972 10.9207 24.8483C11.1426 24.3552 11.4911 23.6889 11.9984 23.0125C13.0119 21.6612 14.786 20.125 17.5 20.125C21.366 20.125 24.5 16.991 24.5 13.125V12.6875C24.5 8.57988 21.1701 5.25 17.0625 5.25H10.9375Z" fill="url(#paint0_linear_12310_89902)"/>
<path id="Union" fill-rule="evenodd" clip-rule="evenodd" d="M14 7.875C13.0335 7.875 12.25 8.6585 12.25 9.625V14.875C12.25 15.8415 13.0335 16.625 14 16.625C14.9665 16.625 15.75 15.8415 15.75 14.875V9.625C15.75 8.6585 14.9665 7.875 14 7.875ZM18.8125 16.625C17.846 16.625 17.0625 15.8415 17.0625 14.875V11.375C17.0625 10.4085 17.846 9.625 18.8125 9.625C19.779 9.625 20.5625 10.4085 20.5625 11.375V14.875C20.5625 15.8415 19.779 16.625 18.8125 16.625ZM9.1875 16.625C8.221 16.625 7.4375 15.8415 7.4375 14.875V13.125C7.4375 12.1585 8.221 11.375 9.1875 11.375C10.154 11.375 10.9375 12.1585 10.9375 13.125V14.875C10.9375 15.8415 10.154 16.625 9.1875 16.625Z" fill="#1447AB"/>
</g>
<defs>
<linearGradient id="paint0_linear_12310_89902" x1="-8.49999" y1="-2.50001" x2="28" y2="27.125" gradientUnits="userSpaceOnUse">
<stop offset="0.138261" stop-color="#AD7AFA"/>
<stop offset="0.425444" stop-color="#3F62ED"/>
<stop offset="0.77882" stop-color="#5797FF"/>
</linearGradient>
</defs>
</svg>
